<svg width="23" height="11" viewBox="0 0 23 11" fill="none" xmlns="http://www.w3.org/2000/svg">
<g clip-path="url(#clip0_12996_20824)">
<path d="M23 5.32191C22.8203 4.78971 22.437 4.60522 21.8799 4.6064C15.7215 4.61586 9.56277 4.61783 3.40388 4.61231H3.08344C3.17328 4.52007 3.23018 4.45857 3.28948 4.40002C4.25979 3.4464 5.2305 2.49218 6.20162 1.53738C6.46516 1.27896 6.55141 0.970286 6.44779 0.624355C6.40614 0.473144 6.32228 0.336531 6.20579 0.230095C6.0893 0.123658 5.94485 0.0516833 5.78893 0.0223766C5.44453 -0.0539056 5.15943 0.0590393 4.91146 0.302669C3.82495 1.3718 2.73724 2.43975 1.64833 3.50652C1.24523 3.90271 0.832554 4.28944 0.444427 4.69924C0.270132 4.88374 0.144947 5.11317 -0.00239563 5.32251V5.67731C0.144947 5.88605 0.26474 6.12258 0.443829 6.29998C1.92126 7.76649 3.40548 9.2265 4.89648 10.68C5.293 11.0691 5.8081 11.1058 6.18185 10.777C6.58076 10.4263 6.59274 9.85213 6.19742 9.46126C5.2303 8.50448 4.25979 7.55065 3.28588 6.59979C3.2241 6.54697 3.15843 6.49874 3.08943 6.4555L3.12656 6.38632H3.38172C9.54819 6.38632 15.7141 6.38829 21.8793 6.39223C22.4364 6.39341 22.8203 6.20892 23 5.67672V5.32191Z" fill="black"/>
</g>
<defs>
<clipPath id="clip0_12996_20824">
<rect width="23" height="11" fill="white" transform="matrix(-1 0 0 1 23 0)"/>
</clipPath>
</defs>
</svg>
