<svg width="33" height="33" viewBox="0 0 33 33" fill="none" xmlns="http://www.w3.org/2000/svg">
<g clip-path="url(#clip0_1617_1271)">
<path d="M10.851 27.5683C11.5232 30.3697 13.939 31.9168 16.3144 31.9972C18.6533 32.0766 21.3787 30.6745 22.1692 27.5683C22.2904 27.5683 22.4202 27.5683 22.5501 27.5683C24.5417 27.5683 26.5334 27.5628 28.5241 27.5711C29.5272 27.5748 30.3081 27.2035 30.7524 26.3297C31.1938 25.4606 31.0255 24.6515 30.4206 23.8756C29.7166 22.9732 29.0665 22.0311 28.4029 21.1001C28.1241 20.7094 28.0192 20.2661 28.0192 19.7913C28.0231 17.2218 28.0789 14.6513 28.0087 12.0836C27.8788 7.38595 25.59 3.94726 21.1479 1.98084C14.6266 -0.906451 6.84841 2.86198 5.29238 9.60268C5.09716 10.4497 5.01253 11.3345 5.00003 12.2046C4.96156 14.7159 4.98176 17.2282 4.99041 19.7396C4.99234 20.3021 4.83558 20.8008 4.49706 21.259C3.80945 22.1881 3.12953 23.1229 2.45249 24.0585C1.92836 24.7836 1.85528 25.5613 2.26208 26.3464C2.6708 27.1342 3.36995 27.5554 4.28549 27.5628C6.33679 27.5803 8.38809 27.5683 10.4394 27.5693C10.5702 27.5693 10.701 27.5693 10.851 27.5693V27.5683ZM4.34127 25.3442C5.0385 24.3781 5.69245 23.4572 6.36468 22.5474C6.99651 21.6922 7.29752 20.75 7.29271 19.6999C7.28021 17.2227 7.28598 14.7464 7.29175 12.2692C7.29175 11.8896 7.31195 11.5091 7.35138 11.1313C7.91686 5.73634 13.5024 2.08982 18.9533 3.55194C22.9434 4.62243 25.689 8.05005 25.714 12.0245C25.7304 14.5931 25.7237 17.1626 25.714 19.7313C25.7102 20.7556 26.0054 21.6801 26.619 22.517C27.2335 23.3547 27.8375 24.1989 28.4462 25.0413C28.5107 25.1309 28.5693 25.226 28.6482 25.3442H4.34127ZM19.7073 27.5822C19.3697 28.8707 17.8252 29.858 16.2932 29.7749C14.9296 29.701 13.463 28.6194 13.3197 27.5822H19.7073Z" fill="#8A0204"/>
</g>
<defs>
<clipPath id="clip0_1617_1271">
<rect width="29" height="31" fill="white" transform="matrix(-1 0 0 1 31 1)"/>
</clipPath>
</defs>
</svg>
