<svg width="23" height="23" viewBox="0 0 23 23" fill="none" xmlns="http://www.w3.org/2000/svg">
<g clip-path="url(#clip0_48_633)">
<path d="M0 4.24857C0.0301972 4.1258 0.0583356 4.00028 0.0899054 3.88027C0.165173 3.57216 0.324127 3.29113 0.549041 3.0685C1.37603 2.24086 2.19616 1.41323 3.01972 0.580073C3.78495 -0.191697 4.77116 -0.193077 5.53845 0.575245C6.49927 1.5353 7.45735 2.49582 8.41268 3.4568C9.21153 4.25822 9.20329 5.2107 8.3914 6.00867C7.78425 6.60089 7.17916 7.19265 6.57613 7.78395C6.25838 8.09639 6.24259 8.32054 6.51986 8.66539C8.85964 11.571 11.5092 14.2101 14.4212 16.5355C14.7438 16.7948 14.997 16.7755 15.2887 16.4769C15.8803 15.8709 16.471 15.2639 17.0608 14.6561C17.7999 13.8974 18.7518 13.8905 19.4985 14.6354C20.4058 15.5403 21.3055 16.4534 22.2197 17.3514C22.5772 17.7025 22.8977 18.0666 23 18.5763V19.0267C22.9074 19.3778 22.7667 19.7012 22.5052 19.964C21.6844 20.787 20.8658 21.6117 20.0496 22.4379C19.6515 22.8421 19.1732 23.0049 18.6118 23C17.6475 22.9911 16.7306 22.7704 15.8385 22.4248C14.2929 21.8269 12.8839 20.9813 11.534 20.0309C9.56086 18.6412 7.77785 17.0307 6.12043 15.2782C4.36419 13.4202 2.78158 11.429 1.53114 9.18886C1.01847 8.27157 0.570316 7.32668 0.286187 6.30662C0.164712 5.86798 0.0940232 5.41554 0 4.9693L0 4.24857Z" fill="#747474"/>
</g>
<defs>
<clipPath id="clip0_48_633">
<rect width="23" height="23" fill="white"/>
</clipPath>
</defs>
</svg>
