<svg width="46" height="56" viewBox="0 0 46 56" fill="none" xmlns="http://www.w3.org/2000/svg">
<g clip-path="url(#clip0_163_621)">
<path d="M40.8812 56H9.04641C8.95281 55.9584 8.85671 55.9228 8.75868 55.8935C6.3446 55.3408 4.74768 53.8737 4.16502 51.4427C3.93915 50.5065 4.02115 49.4915 3.97656 48.5115C3.95785 48.1381 3.97656 47.7633 3.97656 47.3871C2.00702 47.4819 0.946728 46.3502 0.999958 44.2619C1.08484 41.039 1.02154 37.8131 1.02298 34.5873C1.02298 33.1479 0.999958 31.7071 1.04887 30.2692C1.09059 28.9931 2.05594 28.0729 3.30758 28.0058C3.51474 27.9956 3.72335 28.0058 3.96649 28.0058V27.2767C3.96649 20.2261 3.96649 13.1746 3.96649 6.12208C3.96649 3.35125 5.57204 1.085 8.07531 0.28875C8.39757 0.177917 8.72415 0.0933333 9.04641 0H32.1399C32.2589 0.172564 32.3881 0.337659 32.5269 0.494375C36.8544 4.86937 41.1862 9.24437 45.5223 13.6194C45.6791 13.7618 45.8031 13.9373 45.8856 14.1336C45.9682 14.3299 46.0072 14.5422 46 14.7554C45.9865 26.3462 45.9827 37.9366 45.9884 49.5265C45.9884 49.8006 45.9884 50.0733 45.9712 50.346C45.8805 52.166 45.0994 53.6185 43.7096 54.7575C42.8766 55.4327 41.8883 55.7346 40.8812 56ZM7.55452 47.3652C7.55452 48.1775 7.55452 48.9037 7.55452 49.6315C7.55452 51.4471 8.44937 52.3571 10.2405 52.3571H39.7C41.5329 52.3571 42.4004 51.469 42.3947 49.5994C42.3659 38.4635 42.3362 27.3272 42.3055 16.1904V15.5458H41.6135C39.1864 15.5458 36.7565 15.5881 34.3324 15.5137C32.4981 15.4569 30.8134 13.7637 30.753 11.9C30.6695 9.36979 30.7026 6.83521 30.6839 4.30208C30.6839 4.09062 30.6638 3.88062 30.6508 3.64583C30.4739 3.63708 30.3502 3.62542 30.2279 3.62542C23.5208 3.63319 16.8128 3.64146 10.1038 3.65021C8.47814 3.65021 7.56027 4.59667 7.55883 6.23875C7.55883 13.3097 7.55883 20.3817 7.55883 27.4546V28H35.3697C37.2601 28 38.1679 28.9275 38.1679 30.8612C38.1679 35.4171 38.1377 39.9744 38.1837 44.5302C38.201 46.2642 37.1263 47.3944 35.3481 47.3856C26.3205 47.3404 17.2928 47.3652 8.26522 47.3652H7.55452ZM15.8829 33.0327V42.999C17.2382 42.999 18.5574 43.1113 19.8508 42.9771C22.9597 42.6548 24.5351 40.9048 24.6286 37.8496C24.7092 35.2246 23.3252 33.4862 20.7787 33.0035C19.1487 32.6944 17.5245 32.8344 15.8829 33.0327ZM9.46075 39.48C10.2966 39.394 11.0548 39.3823 11.7842 39.2292C13.4401 38.8806 14.4026 37.625 14.3738 35.9552C14.345 34.3394 13.3667 33.2398 11.6605 32.9467C10.193 32.6958 8.72991 32.8431 7.25527 33.04V42.964H9.46075V39.48ZM26.1622 32.9321V42.9567H28.3979V38.9098H31.9313V37.0665H28.4195V34.7608H32.1902V32.9321H26.1622Z" fill="#747474"/>
<path d="M18.1201 41.2213V34.7172C19.4149 34.3147 20.9399 34.7463 21.6578 35.7059C22.4059 36.7078 22.4289 38.8034 21.7024 39.9672C21.0449 41.0245 19.625 41.5334 18.1201 41.2213Z" fill="#747474"/>
<path d="M9.47243 37.7111C9.47243 36.6742 9.46092 35.8036 9.48538 34.9402C9.50066 34.8632 9.53512 34.7914 9.58548 34.7317C9.63584 34.672 9.70043 34.6263 9.77311 34.599C10.1813 34.5561 10.5931 34.5659 10.9989 34.6281C11.7182 34.7652 12.1066 35.2363 12.1584 35.929C12.2102 36.6217 11.8707 37.2779 11.2147 37.4748C10.6809 37.625 10.104 37.625 9.47243 37.7111Z" fill="#747474"/>
<rect x="5" y="30" width="30" height="15" fill="#747474"/>
<path d="M9.85227 42H6.75852V33.2727H9.87784C10.7557 33.2727 11.5114 33.4474 12.1449 33.7969C12.7784 34.1435 13.2656 34.642 13.6065 35.2926C13.9503 35.9432 14.1222 36.7216 14.1222 37.6278C14.1222 38.5369 13.9503 39.3182 13.6065 39.9716C13.2656 40.625 12.7756 41.1264 12.1364 41.4759C11.5 41.8253 10.7386 42 9.85227 42ZM8.60369 40.419H9.77557C10.321 40.419 10.7798 40.3224 11.152 40.1293C11.527 39.9332 11.8082 39.6307 11.9957 39.2216C12.1861 38.8097 12.2812 38.2784 12.2812 37.6278C12.2812 36.983 12.1861 36.456 11.9957 36.0469C11.8082 35.6378 11.5284 35.3366 11.1562 35.1435C10.7841 34.9503 10.3253 34.8537 9.77983 34.8537H8.60369V40.419ZM23.5089 37.6364C23.5089 38.5881 23.3285 39.3977 22.9677 40.0653C22.6097 40.733 22.1211 41.2429 21.5018 41.5952C20.8853 41.9446 20.1921 42.1193 19.4222 42.1193C18.6467 42.1193 17.9506 41.9432 17.3342 41.5909C16.7177 41.2386 16.2305 40.7287 15.8725 40.0611C15.5146 39.3935 15.3356 38.5852 15.3356 37.6364C15.3356 36.6847 15.5146 35.875 15.8725 35.2074C16.2305 34.5398 16.7177 34.0312 17.3342 33.6818C17.9506 33.3295 18.6467 33.1534 19.4222 33.1534C20.1921 33.1534 20.8853 33.3295 21.5018 33.6818C22.1211 34.0312 22.6097 34.5398 22.9677 35.2074C23.3285 35.875 23.5089 36.6847 23.5089 37.6364ZM21.6381 37.6364C21.6381 37.0199 21.5458 36.5 21.3612 36.0767C21.1793 35.6534 20.9222 35.3324 20.5898 35.1136C20.2575 34.8949 19.8683 34.7855 19.4222 34.7855C18.9762 34.7855 18.587 34.8949 18.2546 35.1136C17.9222 35.3324 17.6637 35.6534 17.479 36.0767C17.2972 36.5 17.2063 37.0199 17.2063 37.6364C17.2063 38.2528 17.2972 38.7727 17.479 39.196C17.6637 39.6193 17.9222 39.9403 18.2546 40.1591C18.587 40.3778 18.9762 40.4872 19.4222 40.4872C19.8683 40.4872 20.2575 40.3778 20.5898 40.1591C20.9222 39.9403 21.1793 39.6193 21.3612 39.196C21.5458 38.7727 21.6381 38.2528 21.6381 37.6364ZM32.576 36.3281H30.7095C30.6754 36.0866 30.6058 35.8722 30.5007 35.6847C30.3956 35.4943 30.2607 35.3324 30.0959 35.1989C29.9311 35.0653 29.7408 34.9631 29.5249 34.892C29.3118 34.821 29.0803 34.7855 28.8303 34.7855C28.3786 34.7855 27.9851 34.8977 27.6499 35.1222C27.3146 35.3437 27.0547 35.6676 26.87 36.0938C26.6854 36.517 26.593 37.0312 26.593 37.6364C26.593 38.2585 26.6854 38.7812 26.87 39.2045C27.0575 39.6278 27.3189 39.9474 27.6541 40.1634C27.9893 40.3793 28.3771 40.4872 28.8175 40.4872C29.0646 40.4872 29.2933 40.4545 29.5036 40.3892C29.7166 40.3239 29.9055 40.2287 30.0703 40.1037C30.2351 39.9759 30.3714 39.821 30.4794 39.6392C30.5902 39.4574 30.6669 39.25 30.7095 39.017L32.576 39.0256C32.5277 39.4261 32.407 39.8125 32.2138 40.1847C32.0234 40.554 31.7663 40.8849 31.4425 41.1776C31.1214 41.4673 30.7379 41.6974 30.2919 41.8679C29.8487 42.0355 29.3473 42.1193 28.7876 42.1193C28.0092 42.1193 27.3132 41.9432 26.6996 41.5909C26.0888 41.2386 25.6058 40.7287 25.2507 40.0611C24.8984 39.3935 24.7223 38.5852 24.7223 37.6364C24.7223 36.6847 24.9013 35.875 25.2592 35.2074C25.6172 34.5398 26.103 34.0312 26.7166 33.6818C27.3303 33.3295 28.0206 33.1534 28.7876 33.1534C29.2933 33.1534 29.7621 33.2244 30.1939 33.3665C30.6286 33.5085 31.0135 33.7159 31.3487 33.9886C31.6839 34.2585 31.9567 34.5895 32.1669 34.9815C32.38 35.3736 32.5163 35.8224 32.576 36.3281Z" fill="white"/>
</g>
<defs>
<clipPath id="clip0_163_621">
<rect width="46" height="56" fill="white"/>
</clipPath>
</defs>
</svg>
