<svg width="30" height="31" viewBox="0 0 30 31" fill="none" xmlns="http://www.w3.org/2000/svg">
<path d="M25.9435 2.54541H4.16289C3.80591 2.54541 3.46355 2.69291 3.21113 2.95545C2.9587 3.21799 2.81689 3.57407 2.81689 3.94536V26.5992C2.81689 26.783 2.85171 26.965 2.91935 27.1349C2.98699 27.3048 3.08614 27.4591 3.21113 27.5891C3.33611 27.7191 3.48449 27.8222 3.6478 27.8926C3.8111 27.9629 3.98613 27.9991 4.16289 27.9991H15.8852V18.1358H12.7038V14.3177H15.8852V11.4542C15.8193 10.7819 15.8956 10.1028 16.1088 9.46441C16.322 8.82605 16.6669 8.24392 17.1192 7.75885C17.5716 7.27379 18.1205 6.89754 18.7275 6.65649C19.3345 6.41544 19.9848 6.31542 20.6329 6.36347C21.5853 6.35737 22.5372 6.40836 23.484 6.51619V9.95244H21.5384C19.9966 9.95244 19.703 10.716 19.703 11.8233V14.2796H23.3738L22.8966 18.0976H19.703V27.9991H25.9435C26.1202 27.9991 26.2952 27.9629 26.4585 27.8926C26.6219 27.8222 26.7702 27.7191 26.8952 27.5891C27.0202 27.4591 27.1194 27.3048 27.187 27.1349C27.2546 26.965 27.2895 26.783 27.2895 26.5992V3.94536C27.2895 3.76152 27.2546 3.57948 27.187 3.40962C27.1194 3.23977 27.0202 3.08544 26.8952 2.95545C26.7702 2.82545 26.6219 2.72233 26.4585 2.65198C26.2952 2.58162 26.1202 2.54541 25.9435 2.54541Z" fill="#747474"/>
</svg>
