<svg width="27" height="26" viewBox="0 0 27 26" fill="none" xmlns="http://www.w3.org/2000/svg">
<g clip-path="url(#clip0_119_289)">
<path d="M26.5412 7.64407C26.4801 6.26259 26.2561 5.31284 25.9352 4.48986C25.6041 3.61629 25.0948 2.83419 24.4275 2.18402C23.7755 1.52374 22.9861 1.01066 22.1202 0.685681C21.2902 0.365657 20.3428 0.142255 18.9575 0.0813452C17.5618 0.015277 17.1187 0 13.5789 0C10.0391 0 9.59608 0.015277 8.20559 0.0761868C6.82027 0.137096 5.86788 0.360697 5.04281 0.680522C4.16662 1.01066 3.38234 1.51858 2.73037 2.18402C2.06825 2.83419 1.55395 3.62145 1.22787 4.4849C0.906956 5.31284 0.682933 6.25743 0.621854 7.63891C0.555603 9.03071 0.540283 9.47255 0.540283 13.0025C0.540283 16.5325 0.555603 16.9744 0.616682 18.361C0.677761 19.7425 0.901982 20.6922 1.22289 21.5152C1.55395 22.3888 2.06825 23.1709 2.73037 23.8211C3.38234 24.4813 4.17179 24.9944 5.03764 25.3194C5.86788 25.6394 6.8151 25.8628 8.20061 25.9237C9.59091 25.9848 10.0342 25.9999 13.574 25.9999C17.1138 25.9999 17.5568 25.9848 18.9473 25.9237C20.3326 25.8628 21.285 25.6394 22.1101 25.3194C23.8623 24.6438 25.2476 23.2624 25.925 21.5152C26.2458 20.6873 26.47 19.7425 26.5311 18.361C26.5921 16.9744 26.6075 16.5325 26.6075 13.0025C26.6075 9.47255 26.6023 9.03071 26.5412 7.64407ZM24.1933 18.2594C24.1372 19.5292 23.9234 20.2149 23.7451 20.672C23.307 21.8047 22.4055 22.7037 21.2697 23.1405C20.8113 23.3183 20.1188 23.5316 18.8504 23.5873C17.4753 23.6484 17.0628 23.6635 13.5841 23.6635C10.1054 23.6635 9.6878 23.6484 8.3176 23.5873C7.04429 23.5316 6.35671 23.3183 5.89832 23.1405C5.33309 22.9322 4.81859 22.6021 4.40099 22.1703C3.96806 21.7487 3.637 21.2408 3.4281 20.6772C3.24984 20.22 3.03596 19.5292 2.98006 18.2646C2.91878 16.8932 2.90366 16.4817 2.90366 13.0127C2.90366 9.54358 2.91878 9.12713 2.98006 7.76093C3.03596 6.49115 3.24984 5.80547 3.4281 5.34835C3.637 4.78449 3.96806 4.27162 4.40616 3.85497C4.82874 3.42325 5.33806 3.0931 5.90349 2.88498C6.36188 2.70721 7.05464 2.49393 8.32277 2.43798C9.69794 2.37707 10.1106 2.36179 13.5891 2.36179C17.073 2.36179 17.4854 2.37707 18.8556 2.43798C20.1289 2.49393 20.8165 2.70721 21.2749 2.88498C21.8401 3.0931 22.3546 3.42325 22.7722 3.85497C23.2051 4.27658 23.5362 4.78449 23.7451 5.34835C23.9234 5.80547 24.1372 6.49611 24.1933 7.76093C24.2544 9.13229 24.2697 9.54358 24.2697 13.0127C24.2697 16.4817 24.2544 16.8881 24.1933 18.2594Z" fill="#747474"/>
<path d="M13.5791 6.32336C9.8815 6.32336 6.88147 9.31489 6.88147 13.0024C6.88147 16.6899 9.8815 19.6814 13.5791 19.6814C17.2768 19.6814 20.2767 16.6899 20.2767 13.0024C20.2767 9.31489 17.2768 6.32336 13.5791 6.32336ZM13.5791 17.3349C11.1803 17.3349 9.2345 15.3947 9.2345 13.0024C9.2345 10.6101 11.1803 8.66988 13.5791 8.66988C15.9781 8.66988 17.9236 10.6101 17.9236 13.0024C17.9236 15.3947 15.9781 17.3349 13.5791 17.3349Z" fill="#747474"/>
<path d="M22.1053 6.05937C22.1053 6.92044 21.4051 7.61862 20.5415 7.61862C19.678 7.61862 18.9779 6.92044 18.9779 6.05937C18.9779 5.1981 19.678 4.50012 20.5415 4.50012C21.4051 4.50012 22.1053 5.1981 22.1053 6.05937Z" fill="#747474"/>
</g>
<defs>
<clipPath id="clip0_119_289">
<rect width="26.0722" height="26" fill="white" transform="translate(0.494629)"/>
</clipPath>
</defs>
</svg>
