<svg width="19" height="25" viewBox="0 0 19 25" fill="none" xmlns="http://www.w3.org/2000/svg">
<g clip-path="url(#clip0_48_623)">
<path d="M9.52177 0C11.7776 0.0116373 13.9563 0.792478 15.6724 2.20429C17.3884 3.61611 18.5311 5.56784 18.898 7.71397C19.1858 9.38688 18.8304 10.9474 18.1787 12.4775C17.1551 14.8668 15.8007 17.0821 14.2887 19.2052C12.9867 21.0327 11.6071 22.8118 10.2497 24.5991C9.84546 25.1318 9.20815 25.1325 8.7931 24.6206C6.45461 21.7374 4.26142 18.7578 2.40414 15.559C1.5014 14.0103 0.683541 12.415 0.228934 10.6811C-0.238621 8.89999 0.0390344 7.17298 0.804386 5.53405C2.20633 2.5274 4.63186 0.737273 7.99754 0.129699C8.17443 0.0992747 8.35281 0.0775147 8.53199 0.0645027C8.85784 0.0388403 9.19017 0.0208073 9.52177 0ZM9.51026 5.00832C8.8271 5.00832 8.1593 5.20373 7.59137 5.56983C7.02343 5.93592 6.58089 6.45623 6.31976 7.06492C6.05862 7.67361 5.99062 8.34332 6.12437 8.98928C6.25812 9.63525 6.5876 10.2284 7.07112 10.6938C7.55464 11.1591 8.17046 11.4757 8.84065 11.6035C9.51083 11.7312 10.2053 11.6644 10.8361 11.4115C11.4668 11.1585 12.0056 10.7308 12.3842 10.1825C12.7628 9.63424 12.9643 8.98996 12.963 8.33125C12.9601 7.44972 12.5952 6.60517 11.9482 5.98242C11.3011 5.35967 10.4245 5.00942 9.51026 5.00832Z" fill="#747474"/>
</g>
<defs>
<clipPath id="clip0_48_623">
<rect width="19" height="25" fill="white"/>
</clipPath>
</defs>
</svg>
