<svg width="31" height="32" viewBox="0 0 31 32" fill="none" xmlns="http://www.w3.org/2000/svg">
<path d="M15.5 14.81L27.8806 6.6C27.3829 6.21461 26.7785 6.0043 26.1563 6H4.84376C4.22157 6.0043 3.61714 6.21461 3.11938 6.6L15.5 14.81Z" fill="#747474"/>
<path d="M16.0231 16.8399L15.8584 16.9199H15.7809C15.6917 16.9611 15.597 16.9881 15.5 16.9999C15.4196 17.0104 15.3382 17.0104 15.2578 16.9999H15.1803L15.0156 16.9199L2.03437 8.25995C1.97235 8.50149 1.93981 8.75008 1.9375 8.99995V22.9999C1.9375 23.7956 2.24369 24.5587 2.78872 25.1213C3.33375 25.6839 4.07296 25.9999 4.84375 25.9999H26.1562C26.927 25.9999 27.6663 25.6839 28.2113 25.1213C28.7563 24.5587 29.0625 23.7956 29.0625 22.9999V8.99995C29.0602 8.75008 29.0276 8.50149 28.9656 8.25995L16.0231 16.8399Z" fill="#747474"/>
</svg>
