<svg width="46" height="56" viewBox="0 0 46 56" fill="none" xmlns="http://www.w3.org/2000/svg">
<path d="M40.8812 56H9.04641C8.95281 55.9584 8.85671 55.9228 8.75868 55.8935C6.3446 55.3408 4.74768 53.8737 4.16502 51.4427C3.93915 50.5065 4.02115 49.4915 3.97656 48.5115C3.95785 48.1381 3.97656 47.7633 3.97656 47.3871C2.00702 47.4819 0.946728 46.3502 0.999958 44.2619C1.08484 41.039 1.02154 37.8131 1.02298 34.5873C1.02298 33.1479 0.999958 31.7071 1.04887 30.2692C1.09059 28.9931 2.05594 28.0729 3.30758 28.0058C3.51474 27.9956 3.72335 28.0058 3.96649 28.0058V27.2767C3.96649 20.2261 3.96649 13.1746 3.96649 6.12208C3.96649 3.35125 5.57204 1.085 8.07531 0.28875C8.39757 0.177917 8.72415 0.0933333 9.04641 0H32.1399C32.2589 0.172564 32.3881 0.337659 32.5269 0.494375C36.8544 4.86937 41.1862 9.24437 45.5223 13.6194C45.6791 13.7618 45.8031 13.9373 45.8856 14.1336C45.9682 14.3299 46.0072 14.5422 46 14.7554C45.9865 26.3462 45.9827 37.9366 45.9884 49.5265C45.9884 49.8006 45.9884 50.0733 45.9712 50.346C45.8805 52.166 45.0994 53.6185 43.7096 54.7575C42.8766 55.4327 41.8883 55.7346 40.8812 56ZM7.55452 47.3652C7.55452 48.1775 7.55452 48.9037 7.55452 49.6315C7.55452 51.4471 8.44937 52.3571 10.2405 52.3571H39.7C41.5329 52.3571 42.4004 51.469 42.3947 49.5994C42.3659 38.4635 42.3362 27.3272 42.3055 16.1904V15.5458H41.6135C39.1864 15.5458 36.7565 15.5881 34.3324 15.5137C32.4981 15.4569 30.8134 13.7637 30.753 11.9C30.6695 9.36979 30.7026 6.83521 30.6839 4.30208C30.6839 4.09062 30.6638 3.88062 30.6508 3.64583C30.4739 3.63708 30.3502 3.62542 30.2279 3.62542C23.5208 3.63319 16.8128 3.64146 10.1038 3.65021C8.47814 3.65021 7.56027 4.59667 7.55883 6.23875C7.55883 13.3097 7.55883 20.3817 7.55883 27.4546V28H35.3697C37.2601 28 38.1679 28.9275 38.1679 30.8612C38.1679 35.4171 38.1377 39.9744 38.1837 44.5302C38.201 46.2642 37.1263 47.3944 35.3481 47.3856C26.3205 47.3404 17.2928 47.3652 8.26522 47.3652H7.55452ZM15.8829 33.0327V42.999C17.2382 42.999 18.5574 43.1113 19.8508 42.9771C22.9597 42.6548 24.5351 40.9048 24.6286 37.8496C24.7092 35.2246 23.3252 33.4862 20.7787 33.0035C19.1487 32.6944 17.5245 32.8344 15.8829 33.0327ZM9.46075 39.48C10.2966 39.394 11.0548 39.3823 11.7842 39.2292C13.4401 38.8806 14.4026 37.625 14.3738 35.9552C14.345 34.3394 13.3667 33.2398 11.6605 32.9467C10.193 32.6958 8.72991 32.8431 7.25527 33.04V42.964H9.46075V39.48ZM26.1622 32.9321V42.9567H28.3979V38.9098H31.9313V37.0665H28.4195V34.7608H32.1902V32.9321H26.1622Z" fill="#747474"/>
<path d="M18.1201 41.2212V34.7171C19.4149 34.3146 20.9399 34.7462 21.6578 35.7058C22.4059 36.7077 22.4289 38.8033 21.7024 39.9671C21.0449 41.0244 19.625 41.5333 18.1201 41.2212Z" fill="#747474"/>
<path d="M9.47243 37.7111C9.47243 36.6742 9.46092 35.8036 9.48538 34.9402C9.50066 34.8632 9.53512 34.7914 9.58548 34.7317C9.63584 34.672 9.70043 34.6263 9.77311 34.599C10.1813 34.5561 10.5931 34.5659 10.9989 34.6281C11.7182 34.7652 12.1066 35.2363 12.1584 35.929C12.2102 36.6217 11.8707 37.2779 11.2147 37.4748C10.6809 37.625 10.104 37.625 9.47243 37.7111Z" fill="#747474"/>
</svg>
