<?xml version="1.0" encoding="UTF-8"?>
<svg id="Layer_2" data-name="Layer 2" xmlns="http://www.w3.org/2000/svg" viewBox="0 0 982.93 982.93">
  <defs>
    <style>
      .cls-1 {
        fill: #fff;
      }

      .cls-2 {
        fill: #2eb758;
      }
    </style>
  </defs>
  <g id="objects">
    <g>
      <polygon class="cls-2" points="982.93 491.46 937.4 550.2 966.29 618.68 907.08 663.61 917.14 737.24 848.29 765.24 838.98 838.98 765.24 848.29 737.24 917.15 663.6 907.08 618.68 966.29 550.2 937.4 491.46 982.93 432.72 937.4 364.24 966.29 319.32 907.08 245.68 917.14 217.68 848.29 143.95 838.98 134.63 765.24 65.78 737.24 75.84 663.6 16.63 618.68 45.53 550.2 0 491.46 45.53 432.72 16.63 364.24 75.84 319.32 65.78 245.68 134.63 217.68 143.95 143.95 217.69 134.63 245.68 65.78 319.32 75.84 364.24 16.63 432.72 45.53 491.46 0 550.2 45.53 618.68 16.63 663.61 75.84 737.24 65.78 765.24 134.63 838.98 143.95 848.29 217.69 917.15 245.68 907.08 319.32 966.29 364.24 937.4 432.72 982.93 491.46"/>
      <polygon class="cls-1" points="399.74 685.38 290 575.63 330.98 534.65 397.57 601.24 650.91 320.22 693.96 359.02 399.74 685.38"/>
    </g>
  </g>
</svg>